<?xml version="1.0" encoding="UTF-8" standalone="no"?>
<svg
   viewBox="2 2 20 20"
   version="1.1"
   id="svg3"
   sodipodi:docname="favicon.svg"
   xml:space="preserve"
   inkscape:version="1.4.2 (ebf0e94, 2025-05-08)"
   xmlns:inkscape="http://www.inkscape.org/namespaces/inkscape"
   xmlns:sodipodi="http://sodipodi.sourceforge.net/DTD/sodipodi-0.dtd"
   xmlns="http://www.w3.org/2000/svg"
   xmlns:svg="http://www.w3.org/2000/svg"><defs
     id="defs3"><inkscape:path-effect
       effect="fill_between_many"
       method="originald"
       linkedpaths="#path4-8,0,1|"
       id="path-effect11" /><inkscape:path-effect
       effect="fill_between_many"
       method="originald"
       linkedpaths="#path4-8,0,1|"
       id="path-effect12" /><inkscape:path-effect
       effect="fill_between_many"
       method="originald"
       linkedpaths="#path4-8,0,1|"
       id="path-effect13" /><inkscape:path-effect
       effect="fill_between_many"
       method="originald"
       linkedpaths="#path4-2,0,1|"
       id="path-effect14" /></defs><sodipodi:namedview
     id="namedview3"
     pagecolor="#ffffff"
     bordercolor="#000000"
     borderopacity="0.25"
     inkscape:showpageshadow="2"
     inkscape:pageopacity="0.0"
     inkscape:pagecheckerboard="0"
     inkscape:deskcolor="#d1d1d1"
     showguides="true"
     inkscape:zoom="13.099153"
     inkscape:cx="22.749562"
     inkscape:cy="19.7341"
     inkscape:window-width="1920"
     inkscape:window-height="1001"
     inkscape:window-x="-9"
     inkscape:window-y="-9"
     inkscape:window-maximized="1"
     inkscape:current-layer="svg3"><sodipodi:guide
       position="76.508784,-498.37717"
       orientation="1,0"
       id="guide33"
       inkscape:locked="false" /></sodipodi:namedview><title
     id="title1">OOjs_UI_icon_academic-progressive</title><g
     id="g34"
     transform="matrix(0.0390625,0,0,0.0390625,11.53125,11.53125)"><rect
       style="fill:#000000;stroke:none;stroke-width:1.33417;stroke-linejoin:round"
       id="rect4-9"
       width="512"
       height="512"
       x="-244"
       y="-244"
       ry="49.878544" /><g
       id="g33"
       transform="translate(748.17452,118.69189)"><path
         style="fill:#ffffff;stroke:none;stroke-width:100;stroke-dasharray:none"
         d="m -729.28635,62.058113 c 0.31141,-1.7875 1.48426,-8.51772 2.60634,-14.95604 4.2526,-24.40077 4.5325,-33.826 4.55228,-153.293963 0.0202,-122.17978 -0.238,-130.14563 -5.07101,-156.42827 -1.3581,-7.38554 -2.22242,-14.07157 -1.9207,-14.85783 0.46978,-1.22424 8.55451,-1.35647 56.28858,-0.92066 50.53039,0.46135 56.76808,0.69978 66.73999,2.55112 27.20479,5.0507 49.63065,15.74194 66.38196,31.64673 20.51969,19.48274 28.60373,38.33315 28.52247,66.50891 -0.0793,27.51451 -8.68886,47.49819 -28.74251,66.71469 -13.26238,12.708743 -29.18576,22.059793 -46.68305,27.414773 l -7.52113,2.30181 31.34632,45.53437 c 32.4262,47.10304 42.72041,60.64123 64.11837,84.32383 6.91766,7.65626 12.72307,14.54824 12.9009,15.3155 0.27185,1.17295 -5.24612,1.39503 -34.66225,1.39503 h -34.98557 l -6.70506,-12.75 c -10.48264,-19.93326 -27.1031,-45.7310795 -50.27935,-78.04222 -11.7199,-16.33928 -24.5449,-34.30313 -28.5,-39.91968 l -7.1911,-10.21191 -13.9128,-0.0381 -13.91282,-0.0381 0.64563,43.25 c 0.71513,47.90582 1.6718,62.91479 5.2566,82.46939 1.33287,7.27066 2.4234,13.68316 2.4234,14.25 0,0.68541 -10.42709,1.03061 -31.13084,1.03061 h -31.13084 z"
         id="path30" /><path
         style="fill:#ffffff;stroke:none;stroke-width:100;stroke-dasharray:none"
         d="m -986.58784,63.058113 c 0.002,-1.2375 0.86718,-6.75 1.92337,-12.25 4.44543,-23.14927 4.57393,-27.62267 4.56727,-159.000003 -0.006,-114.40402 -0.15755,-126.10198 -1.79017,-138 -0.98111,-7.15 -2.44039,-16.15 -3.24285,-20 -0.80245,-3.85 -1.45937,-8.2375 -1.45982,-9.75 l -8.2e-4,-2.75 h 99.37755 c 78.30123,0 99.58998,0.26511 100.37912,1.25 1.47834,1.84506 11.40335,51.98999 10.47412,52.91922 -0.43639,0.43639 -4.97055,-1.00741 -10.0759,-3.20845 -24.16395,-10.41765 -45.96529,-12.90582 -113.4049,-12.9428 l -32.75,-0.018 v 58 58 l 30.25,-0.0136 c 47.73159,-0.0214 76.96117,-2.00928 96.25001,-6.54574 3.3,-0.77611 6.5625,-1.41776 7.25,-1.42589 0.96886,-0.0115 1.25,5.9322 1.25,26.4262 0,14.542543 -0.37192,26.670843 -0.82649,26.951783 -0.45458,0.28095 -3.49208,-0.10915 -6.75,-0.86687 -19.65959,-4.57241 -47.54791,-6.49049 -94.67352,-6.51138 l -32.75,-0.0145 0.009,39.75 c 0.0128,56.2822405 1.74943,84.1755 6.51683,104.6735 0.75772,3.25793 1.14782,6.29543 0.86688,6.75 -0.28095,0.45458 -14.20925,0.8265 -30.95179,0.8265 h -30.44091 z"
         id="path4-5" /><path
         style="fill:#000000;stroke:none;stroke-width:100;stroke-dasharray:none"
         d="m -675.16649,-111.23206 c -0.4125,-0.43624 -0.75,-30.24468 -0.75,-66.24099 v -65.44783 l 27.25,0.52815 c 28.27354,0.54799 35.06986,1.3594 48.72143,5.81683 11.17973,3.65035 20.0536,8.8379 27.10784,15.84692 11.96868,11.89194 16.49244,25.37347 15.61565,46.53709 -0.76807,18.53924 -5.09042,29.06837 -16.62965,40.50943 -10.56922,10.47931 -25.66367,17.29979 -45.32328,20.4795 -9.99058,1.61585 -54.83508,3.19437 -55.99199,1.9709 z"
         id="path32" /></g></g></svg>
